<?xml version="1.0" standalone="no"?>
<!DOCTYPE svg PUBLIC "-//W3C//DTD SVG 20010904//EN"
 "http://www.w3.org/TR/2001/REC-SVG-20010904/DTD/svg10.dtd">
<svg version="1.0" xmlns="http://www.w3.org/2000/svg"
 width="256.000000pt" height="256.000000pt" viewBox="0 0 256.000000 256.000000"
 preserveAspectRatio="xMidYMid meet">
<metadata>
Created by potrace 1.14, written by Peter Selinger 2001-2017
</metadata>
<g transform="translate(0.000000,256.000000) scale(0.100000,-0.100000)"
fill="#000000" stroke="none">
<path d="M1158 2485 c-1 -2 -16 -5 -33 -8 -170 -28 -345 -110 -473 -224 l-43
-38 50 -52 c28 -29 54 -53 59 -53 4 0 17 8 28 18 246 223 618 270 904 114 54
-30 115 -72 154 -106 16 -14 33 -26 38 -26 6 0 32 23 60 52 l50 52 -43 39
c-112 99 -286 190 -406 212 -16 3 -39 8 -53 11 -26 7 -286 15 -292 9z"/>
<path d="M1217 2204 c-1 -2 -25 -6 -52 -9 -94 -13 -224 -75 -310 -150 l-29
-26 56 -56 57 -56 36 31 c50 44 123 79 202 98 141 32 288 -2 401 -93 l43 -35
56 56 57 55 -24 22 c-93 81 -181 124 -315 156 -22 5 -174 11 -178 7z"/>
<path d="M982 1849 c-45 -9 -76 -32 -103 -76 l-24 -38 0 -771 0 -770 28 -43
c19 -28 43 -49 73 -62 41 -19 64 -20 356 -17 352 3 351 3 403 76 l30 44 1 746
c1 421 -2 763 -7 784 -11 45 -50 93 -93 115 -27 14 -73 17 -332 18 -166 0
-315 -3 -332 -6z"/>
</g>
</svg>
